<svg xmlns="http://www.w3.org/2000/svg" xmlns:xlink="http://www.w3.org/1999/xlink" width="50" zoomAndPan="magnify" viewBox="0 0 37.5 37.499999" height="50" preserveAspectRatio="xMidYMid meet" version="1.0"><defs><clipPath id="d23fb6c182"><path d="M 0 0 L 37.007812 0 L 37.007812 37.007812 L 0 37.007812 Z M 0 0 " clip-rule="nonzero"/></clipPath><clipPath id="eca978cdb0"><path d="M 1.480469 0 L 35.527344 0 C 35.917969 0 36.296875 0.15625 36.574219 0.433594 C 36.851562 0.710938 37.007812 1.085938 37.007812 1.480469 L 37.007812 35.527344 C 37.007812 35.917969 36.851562 36.296875 36.574219 36.574219 C 36.296875 36.851562 35.917969 37.007812 35.527344 37.007812 L 1.480469 37.007812 C 1.085938 37.007812 0.710938 36.851562 0.433594 36.574219 C 0.15625 36.296875 0 35.917969 0 35.527344 L 0 1.480469 C 0 1.085938 0.15625 0.710938 0.433594 0.433594 C 0.710938 0.15625 1.085938 0 1.480469 0 Z M 1.480469 0 " clip-rule="nonzero"/></clipPath><clipPath id="21e7a7cd00"><path d="M 4.019531 8.273438 L 17 8.273438 L 17 23 L 4.019531 23 Z M 4.019531 8.273438 " clip-rule="nonzero"/></clipPath><clipPath id="2306d609e2"><path d="M 9 19 L 17 19 L 17 28.996094 L 9 28.996094 Z M 9 19 " clip-rule="nonzero"/></clipPath><clipPath id="ab3621bd98"><path d="M 20 14 L 32.882812 14 L 32.882812 28.996094 L 20 28.996094 Z M 20 14 " clip-rule="nonzero"/></clipPath><clipPath id="b84fa8a085"><path d="M 20 8.273438 L 28 8.273438 L 28 18 L 20 18 Z M 20 8.273438 " clip-rule="nonzero"/></clipPath></defs><g clip-path="url(#d23fb6c182)"><g clip-path="url(#eca978cdb0)"><path fill="#001a50" d="M 0 0 L 37.007812 0 L 37.007812 37.007812 L 0 37.007812 Z M 0 0 " fill-opacity="1" fill-rule="nonzero"/></g></g><g clip-path="url(#21e7a7cd00)"><path fill="#ff0000" d="M 4.019531 18.5 L 16.53125 8.28125 L 16.53125 15.140625 L 11.355469 19.367188 L 9.652344 20.757812 C 9.191406 21.136719 8.921875 21.699219 8.921875 22.296875 C 8.921875 22.371094 8.929688 22.445312 8.9375 22.515625 Z M 4.019531 18.5 " fill-opacity="1" fill-rule="nonzero"/></g><g clip-path="url(#2306d609e2)"><path fill="#db0000" d="M 10.011719 23.394531 C 9.679688 23.125 9.488281 22.722656 9.488281 22.296875 C 9.488281 21.867188 9.679688 21.46875 10.011719 21.195312 L 11.535156 19.953125 L 16.53125 24.03125 L 16.53125 28.71875 Z M 10.011719 23.394531 " fill-opacity="1" fill-rule="nonzero"/></g><g clip-path="url(#ab3621bd98)"><path fill="#009bff" d="M 20.476562 21.859375 L 25.648438 17.632812 L 27.351562 16.242188 C 27.816406 15.863281 28.082031 15.304688 28.082031 14.707031 C 28.082031 14.632812 28.078125 14.558594 28.070312 14.484375 L 32.988281 18.5 L 20.476562 28.71875 Z M 20.476562 21.859375 " fill-opacity="1" fill-rule="nonzero"/></g><g clip-path="url(#b84fa8a085)"><path fill="#3a51d6" d="M 20.476562 12.972656 L 20.476562 8.28125 L 26.996094 13.605469 C 27.328125 13.878906 27.515625 14.277344 27.515625 14.707031 C 27.515625 15.132812 27.328125 15.535156 26.996094 15.804688 L 25.46875 17.050781 Z M 20.476562 12.972656 " fill-opacity="1" fill-rule="nonzero"/></g></svg>